<svg xmlns="http://www.w3.org/2000/svg" width="141" height="59" viewBox="0 0 141 59"><g fill="#2272BA" fill-rule="evenodd"><path d="M15.4 47l9.4-35h11.45c5.7 0 9.45 1.15 12 3.7C50.1 17.55 51 19.95 51 22.85c0 8.7-7.05 14.1-17.4 14.1h-5.75L25.15 47H15.4zm14.45-17.6h3.65c4.8 0 7.55-2.15 7.55-5.45 0-.95-.35-1.8-1-2.45-.95-.95-2.35-1.35-4.15-1.35h-3.6l-2.45 9.25zM49 47l9.4-35h9.05l9.05 19.45L81.75 12h9.65L82 47h-8.5l-9.45-20.15L58.65 47H49zm54.75.6c-6.85 0-12.5-2.35-16.25-6.4l6.25-6.45c3.4 3.15 6.95 4.75 10.8 4.75 2.3 0 3.95-1 3.95-2.6 0-1.35-.95-2.05-5.85-3.95-5.55-2.1-9.1-4.5-9.1-9.65 0-6.95 6.3-11.9 14.85-11.9 6.15 0 11 2 14.35 5.2l-6 6.7c-2.65-2.3-5.7-3.85-9.25-3.85-2.35 0-3.8 1.1-3.8 2.5s1.05 1.9 5.85 3.8c5.4 2.05 9.1 4.5 9.1 9.75 0 7.2-6.2 12.1-14.9 12.1z"/><path fill-rule="nonzero" d="M90.446.648h48.875a.75.75 0 0 1 .253.044.703.703 0 0 1 .3-.041c.313.024.541.243.51.488l-9.486 35.543c-.03.246-.309.425-.621.4-.313-.024-.54-.242-.51-.488l9.29-34.808H90.774l-1.64 4.726c-.035.21-.316.363-.628.34-.312-.024-.537-.213-.503-.424l1.69-4.865a.518.518 0 0 1-.137-.346c0-.314.296-.569.66-.569h.23zM49.959 58.085H1.085a.75.75 0 0 1-.254-.044.703.703 0 0 1-.3.042c-.313-.025-.541-.243-.51-.489l9.486-35.543c.03-.246.31-.425.622-.4.312.024.54.242.51.488l-9.29 34.808H49.63l1.64-4.726c.035-.21.316-.363.628-.34.312.024.537.213.503.424l-1.689 4.865a.518.518 0 0 1 .136.346c0 .314-.296.569-.66.569h-.23z"/></g></svg>